<?xml version="1.0" standalone="no"?><!DOCTYPE svg PUBLIC "-//W3C//DTD SVG 1.1//EN" "http://www.w3.org/Graphics/SVG/1.1/DTD/svg11.dtd"><svg t="1487923508576" class="icon" style="" viewBox="0 0 1024 1024" version="1.1" xmlns="http://www.w3.org/2000/svg" p-id="6175" xmlns:xlink="http://www.w3.org/1999/xlink" width="48" height="48"><defs><style type="text/css"></style></defs><path d="M987.2 475.2 256 475.2c-20.8 0-36.8 16-36.8 36.8 0 20.8 16 36.8 36.8 36.8l731.2 0c20.8 0 36.8-16 36.8-36.8C1024 491.2 1008 475.2 987.2 475.2z" p-id="6176" fill="#8a8a8a"></path><path d="M256 256l731.2 0c20.8 0 36.8-16 36.8-36.8 0-20.8-16-36.8-36.8-36.8L256 182.4c-20.8 0-36.8 16-36.8 36.8C219.2 240 235.2 256 256 256z" p-id="6177" fill="#8a8a8a"></path><path d="M36.8 804.8m-36.8 0a2.3 2.3 0 1 0 73.6 0 2.3 2.3 0 1 0-73.6 0Z" p-id="6178" fill="#8a8a8a"></path><path d="M36.8 512m-36.8 0a2.3 2.3 0 1 0 73.6 0 2.3 2.3 0 1 0-73.6 0Z" p-id="6179" fill="#8a8a8a"></path><path d="M36.8 219.2m-36.8 0a2.3 2.3 0 1 0 73.6 0 2.3 2.3 0 1 0-73.6 0Z" p-id="6180" fill="#8a8a8a"></path><path d="M987.2 768 256 768c-20.8 0-36.8 16-36.8 36.8 0 20.8 16 36.8 36.8 36.8l731.2 0c20.8 0 36.8-16 36.8-36.8C1024 784 1008 768 987.2 768z" p-id="6181" fill="#8a8a8a"></path></svg>