<?xml version="1.0" encoding="utf-8"?>
<!-- Generator: Adobe Illustrator 16.0.0, SVG Export Plug-In . SVG Version: 6.00 Build 0)  -->
<!DOCTYPE svg PUBLIC "-//W3C//DTD SVG 1.1//EN" "http://www.w3.org/Graphics/SVG/1.1/DTD/svg11.dtd">
<svg version="1.1" id="图层_1" xmlns="http://www.w3.org/2000/svg" xmlns:xlink="http://www.w3.org/1999/xlink" x="0px" y="0px"
	 width="248.867px" height="41px" viewBox="0 0 248.867 41" enable-background="new 0 0 248.867 41" xml:space="preserve">
<g>
	<path fill="#212121" d="M39.858,25.315c0.642-2.569,1.894-5.054,3.756-7.457c1.861-2.403,4.123-4.238,6.783-5.503
		c2.624-1.266,5.366-1.899,8.228-1.899c4.42,0,7.686,1.431,9.796,4.293c1.394,1.889,2.091,4.109,2.091,6.659
		c0,1.321-0.193,2.734-0.578,4.238c-1.101,4.421-3.431,8.081-6.989,10.979C59.35,39.542,55.387,41,51.058,41
		c-2.679,0-5.081-0.606-7.209-1.816c-2.128-1.21-3.532-2.99-4.21-5.338c-0.312-1.046-0.468-2.202-0.468-3.467
		C39.17,28.837,39.4,27.149,39.858,25.315z M47.673,25.728c-0.293,1.211-0.44,2.302-0.44,3.274c0,1.358,0.284,2.486,0.853,3.384
		c0.991,1.541,2.494,2.312,4.513,2.312c2.018,0,3.903-0.771,5.655-2.312c1.751-1.541,2.995-3.779,3.729-6.714
		c0.312-1.211,0.468-2.302,0.468-3.274c0-1.339-0.285-2.449-0.853-3.33c-0.991-1.541-2.495-2.312-4.513-2.312
		s-3.907,0.771-5.668,2.312S48.407,22.83,47.673,25.728z"/>
	<path fill="#212121" d="M74.282,25.315c0.643-2.569,1.895-5.054,3.756-7.457s4.123-4.238,6.783-5.503
		c2.623-1.266,5.366-1.899,8.228-1.899c4.421,0,7.687,1.431,9.796,4.293c1.394,1.889,2.091,4.109,2.091,6.659
		c0,1.321-0.192,2.734-0.578,4.238c-1.101,4.421-3.431,8.081-6.99,10.979C93.773,39.542,89.811,41,85.481,41
		c-2.679,0-5.081-0.606-7.209-1.816c-2.128-1.21-3.532-2.99-4.21-5.338c-0.313-1.046-0.468-2.202-0.468-3.467
		C73.594,28.837,73.823,27.149,74.282,25.315z M82.097,25.728c-0.293,1.211-0.44,2.302-0.44,3.274c0,1.358,0.285,2.486,0.853,3.384
		c0.991,1.541,2.495,2.312,4.513,2.312c2.018,0,3.903-0.771,5.655-2.312c1.751-1.541,2.994-3.779,3.728-6.714
		c0.312-1.211,0.468-2.302,0.468-3.274c0-1.339-0.285-2.449-0.853-3.33c-0.991-1.541-2.495-2.312-4.513-2.312
		s-3.907,0.771-5.668,2.312C84.078,20.61,82.83,22.83,82.097,25.728z"/>
	<g>
		<path fill="#D94C3D" d="M26.073,23.417l0.342-0.387l-21.58,5.362c-0.398,0.099-0.641,0.502-0.542,0.9l2.148,8.647
			c0.099,0.397,0.502,0.641,0.9,0.542l15.97-3.969L26.073,23.417z"/>
		<path fill="#E8961E" d="M26.073,23.417l1.575-1.783L3.796,19.107c-0.408-0.043-0.773,0.252-0.817,0.66l-0.938,8.861
			c-0.043,0.408,0.252,0.774,0.66,0.817l21.31,2.257L26.073,23.417z"/>
		<path fill="#24B294" d="M26.073,23.417l2.499-2.828L4.981,9.06C4.612,8.879,4.168,9.032,3.988,9.4l-3.913,8.006
			c-0.18,0.368-0.028,0.813,0.341,0.993l23.988,11.723L26.073,23.417z"/>
		<g>
			<path fill="#57A0D3" d="M28.283,19.471l-3.818-3.96l-0.374,0.449l-0.449-1.301L9.729,0.227c-0.285-0.295-0.755-0.304-1.05-0.02
				L2.264,6.392C1.969,6.677,1.96,7.147,2.245,7.442l18.554,19.244c0.285,0.295,0.755,0.304,1.05,0.02l6.415-6.185
				C28.559,20.236,28.567,19.766,28.283,19.471z"/>
		</g>
	</g>
	<path fill="#212121" d="M13.819,40.339l4.237-16.978L9.114,0h9.548l5.503,15.959L37.456,0h9.384L26.147,23.417l-4.21,16.923H13.819
		z"/>
	<g>
		<path fill="#1F2020" d="M120.059,33.716c0.887,0.023,1.355,0.348,1.404,0.972c-0.024,0.769-0.54,1.332-1.548,1.691
			c-3.192,1.345-5.772,2.089-7.74,2.232c-1.128-0.049-1.728-0.517-1.8-1.404c0.072-0.623,0.492-1.044,1.26-1.26
			c3.552-0.504,5.904-1.128,7.056-1.872C119.219,33.86,119.675,33.74,120.059,33.716z M120.347,18.812
			c0.696,0.024,1.068,0.396,1.116,1.116c0,0.408-0.18,0.78-0.54,1.115c-3.36,3.553-5.376,5.832-6.048,6.841
			c-0.576,0.768-0.864,1.296-0.864,1.584c0,0.192,0.192,0.287,0.576,0.287c0.696,0,1.428-0.131,2.196-0.396
			c0.792-0.191,1.764-0.648,2.916-1.368c0.192-0.096,0.36-0.155,0.504-0.18c0.792,0.024,1.211,0.396,1.26,1.116
			c-0.072,0.744-0.54,1.308-1.404,1.691c-1.008,0.648-1.993,1.104-2.952,1.368c-1.032,0.288-1.836,0.432-2.412,0.432h-0.54
			c-0.984,0-1.752-0.203-2.304-0.611c-0.432-0.336-0.648-0.876-0.648-1.62c0-1.104,0.419-2.364,1.26-3.78
			c0.336-0.479,0.732-0.995,1.188-1.548c-0.84-0.048-1.548-0.3-2.124-0.756c-0.6-0.576-0.9-1.225-0.9-1.944
			c0-1.151,0.492-2.7,1.476-4.644c1.152-1.992,2.82-4.092,5.004-6.3c0.432-0.384,0.852-0.576,1.26-0.576
			c0.72,0.023,1.104,0.444,1.152,1.26c-0.024,0.384-0.168,0.708-0.432,0.972c-2.712,3.072-4.344,5.196-4.896,6.372
			c-0.576,0.912-0.864,1.788-0.864,2.628c0,0.288,0.276,0.433,0.828,0.433c0.336,0,1.008-0.229,2.016-0.685
			c0.24-0.096,0.432-0.167,0.576-0.216c0.624-0.624,1.26-1.26,1.908-1.908C119.231,19.064,119.794,18.836,120.347,18.812z
			 M131.867,10.064c1.536,0,2.82,0.384,3.852,1.152c1.2,0.84,1.8,1.704,1.8,2.592v0.611c0,1.201-0.72,2.4-2.16,3.601
			c-0.769,0.672-1.752,1.416-2.952,2.231c0.12,0.049,0.24,0.108,0.36,0.181c4.487,2.088,7.007,3.372,7.56,3.852
			c0.6,0.265,0.924,0.685,0.972,1.26c-0.048,0.673-0.516,1.044-1.404,1.116c-0.144,0-0.432-0.107-0.864-0.324
			c-2.064-1.271-4.824-2.664-8.28-4.176c-0.336-0.072-0.6-0.18-0.792-0.324c-2.04,1.296-4.452,2.725-7.236,4.284
			c-0.408,0.168-0.732,0.252-0.972,0.252c-0.816-0.023-1.236-0.348-1.26-0.972c0.024-0.6,0.3-1.02,0.828-1.26
			c5.808-3.313,9.924-6.024,12.348-8.137c0.768-0.671,1.152-1.199,1.152-1.584c0-0.6-0.252-1.056-0.756-1.367
			c-0.552-0.384-1.284-0.576-2.196-0.576c-1.224,0-2.916,0.276-5.076,0.828c-1.776,0.6-2.893,0.936-3.348,1.008
			c-0.84,0-1.309-0.336-1.404-1.008c0.072-0.552,0.444-0.973,1.116-1.261c3-1.224,5.544-1.872,7.632-1.943L131.867,10.064z
			 M126.107,26.516c0.648,0,2.34,0.06,5.076,0.18c3.191,0.144,5.016,0.229,5.472,0.252c0.816,0.265,1.236,0.684,1.26,1.26
			c-0.072,0.721-0.492,1.104-1.26,1.152c-0.768,0-2.208-0.048-4.32-0.144c0.384,2.424,0.756,4.728,1.116,6.911
			c0.024,0.145,0.048,0.276,0.072,0.396c1.56-0.072,3.264-0.12,5.112-0.145c1.32,0.024,2.016,0.396,2.088,1.116
			c-0.024,0.768-0.444,1.188-1.26,1.26c-4.776,0.072-8.4,0.24-10.872,0.505c-1.488,0.167-2.928,0.287-4.32,0.359
			c-0.913-0.048-1.38-0.468-1.404-1.26c0-0.624,0.516-1.008,1.548-1.152c1.56-0.239,3.66-0.432,6.3-0.576
			c-0.576-3.96-0.924-6.467-1.044-7.523c-1.176-0.048-2.46-0.108-3.852-0.18c-0.816-0.168-1.236-0.54-1.26-1.116
			C124.607,26.997,125.123,26.564,126.107,26.516z"/>
		<path fill="#1F2020" d="M152.675,32.419c1.728,0,2.628,0.433,2.7,1.297c-0.048,0.744-0.48,1.164-1.296,1.26
			c-2.904,0-4.716,0.12-5.436,0.359c-0.72,0.169-1.249,0.276-1.584,0.324c-0.96-0.048-1.476-0.468-1.548-1.26
			c0.048-0.6,0.42-1.02,1.116-1.26C147.515,32.756,149.531,32.516,152.675,32.419z M152.639,10.352c1.608,0,2.808,0.444,3.6,1.332
			c0.864,1.032,1.32,2.532,1.368,4.5v1.368c-0.024,2.111-0.348,4.116-0.972,6.012c-0.168,0.6-0.588,0.936-1.26,1.008
			c-0.672-0.048-1.008-0.468-1.008-1.26c0-0.408,0.084-0.937,0.252-1.584c0.312-1.872,0.468-3.443,0.468-4.716
			c0-1.776-0.229-2.976-0.684-3.601c-0.432-0.432-1.021-0.647-1.764-0.647c-0.624,0-1.404,0.107-2.34,0.323c0,0.024,0,0.049,0,0.072
			c0,0.48-0.229,2.088-0.684,4.824c-0.288,3.528-0.432,5.845-0.432,6.948c0,0.815,0.12,1.368,0.36,1.655
			c0.312,0.433,0.804,0.648,1.476,0.648c0.072,0,0.864-0.12,2.376-0.36c0.936-0.144,1.667-0.216,2.196-0.216
			c1.176,0,2.052,0.337,2.628,1.008c0.72,0.792,1.08,1.836,1.08,3.133c0,1.464-0.06,2.808-0.18,4.031
			c-0.12,1.44-0.336,2.893-0.648,4.356c-0.264,0.432-0.6,0.707-1.008,0.828c-0.864,0-1.332-0.373-1.404-1.116
			c0.023-0.48,0.108-1.188,0.252-2.124c0.312-2.088,0.468-3.996,0.468-5.724c0-0.648-0.156-1.116-0.468-1.404
			c-0.313-0.288-0.696-0.432-1.152-0.432c-0.408,0-1.188,0.084-2.34,0.252c-1.08,0.192-1.728,0.287-1.944,0.287
			c-1.584,0-2.76-0.443-3.528-1.332c-0.48-0.72-0.72-1.836-0.72-3.348c0-3.479,0.36-7.248,1.08-11.304
			c-0.192,0.072-0.36,0.107-0.504,0.107c-0.816-0.048-1.237-0.383-1.26-1.008c0-0.552,0.324-1.02,0.972-1.403
			c1.704-0.744,3.299-1.116,4.788-1.116H152.639z M167.435,14.78c-2.112,2.304-4.261,4.716-6.444,7.236
			c-0.504,0.456-0.972,0.696-1.404,0.72c-0.696-0.096-1.068-0.516-1.116-1.26c0-0.48,0.132-0.948,0.396-1.404
			c2.904-3.672,5.808-6.863,8.712-9.576c0.479-0.384,0.959-0.576,1.44-0.576c0.648,0.072,1.02,0.457,1.116,1.152
			c-0.024,0.432-0.216,0.9-0.576,1.404c-0.121,0.12-0.229,0.24-0.324,0.359c0.167,0.049,0.324,0.108,0.468,0.181
			c2.688,1.728,4.896,3.324,6.624,4.788c0.744,0.48,1.116,1.044,1.116,1.691c-0.096,0.673-0.468,1.044-1.116,1.116
			c-0.624,0-1.14-0.18-1.548-0.54c-1.992-1.728-4.248-3.324-6.768-4.788C167.771,15.116,167.579,14.948,167.435,14.78z
			 M175.463,35.516c0.936,0.048,1.404,0.432,1.404,1.151c-0.024,0.673-0.396,1.093-1.116,1.261c-0.96,0.264-2.976,0.6-6.048,1.008
			c-2.232,0.312-4.621,0.491-7.164,0.54c-0.697,0-1.224-0.108-1.584-0.324c-0.36-0.216-0.54-0.624-0.54-1.224
			c0.048-0.6,0.468-0.937,1.26-1.009c3.288-0.144,6.3-0.383,9.036-0.72c-0.024-0.048-0.036-0.084-0.036-0.107
			c0.048-1.248,0.852-3.685,2.412-7.309c0.336-0.72,0.852-1.092,1.548-1.116c0.576,0.024,0.9,0.396,0.972,1.116
			c-0.072,1.032-0.816,3.384-2.232,7.056c0.192-0.047,0.383-0.083,0.576-0.107C174.527,35.587,175.031,35.516,175.463,35.516z
			 M161.963,28.064c0.648,0.024,1.068,0.265,1.26,0.72c0.336,1.488,0.756,2.832,1.26,4.032c0.264,0.553,0.408,1.032,0.432,1.439
			c-0.024,0.721-0.444,1.093-1.26,1.116c-0.504-0.023-0.924-0.252-1.26-0.684c-0.936-2.664-1.404-4.487-1.404-5.472
			C161.015,28.52,161.338,28.136,161.963,28.064z M163.799,21.043c0.624,0,2.22,0.133,4.788,0.396
			c3.024,0.313,4.752,0.504,5.184,0.576c0.888,0.312,1.355,0.78,1.404,1.403c-0.072,0.721-0.54,1.104-1.404,1.152
			c-1.272,0-4.692-0.336-10.26-1.008c-0.888-0.145-1.356-0.516-1.404-1.116C162.155,21.536,162.719,21.068,163.799,21.043z
			 M166.895,27.524c0.815,0,1.284,0.468,1.404,1.404c0.288,1.56,0.588,3.06,0.9,4.5c0.024,0.192,0.048,0.336,0.072,0.432
			c-0.024,0.792-0.348,1.212-0.972,1.26c-0.84-0.023-1.356-0.407-1.548-1.151c-0.576-2.904-0.9-4.632-0.972-5.185
			C165.803,27.968,166.175,27.548,166.895,27.524z"/>
		<path fill="#1F2020" d="M184.463,11.9c1.464,0,5.004,0.061,10.62,0.18c0.504-0.815,0.996-1.571,1.476-2.268
			c0.432-0.384,0.852-0.576,1.26-0.576c0.672,0.072,1.056,0.444,1.152,1.116c-0.024,0.408-0.216,0.828-0.576,1.26
			c-0.121,0.192-0.229,0.372-0.324,0.54c7.008,0.168,11.052,0.276,12.132,0.324c0.887,0.288,1.355,0.756,1.404,1.403
			c-0.072,0.721-0.54,1.093-1.404,1.116c-2.185,0-6.72-0.084-13.608-0.252c-0.48,0.841-0.96,1.681-1.44,2.521
			c1.728-0.288,3.36-0.433,4.896-0.433h1.764c3.24,0,5.628,0.673,7.164,2.017c1.344,1.176,2.04,2.676,2.088,4.5v1.115
			c0,1.681-0.144,3.48-0.432,5.4c-0.216,1.824-0.732,4.225-1.548,7.2c0.336,0,0.66,0,0.972,0c1.679,0.144,2.52,0.612,2.52,1.404
			c-0.024,0.695-0.492,1.079-1.404,1.151c-7.104,0-12.912,0.06-17.424,0.181c-3.96,0.095-6.696,0.191-8.208,0.287
			c-0.864,0.048-1.5,0.072-1.908,0.072c-0.864,0-1.332-0.372-1.404-1.116c0.023-0.696,0.492-1.164,1.404-1.403
			c0.216,0,0.444-0.012,0.684-0.036c-0.625-1.56-0.948-4.788-0.972-9.685v-0.863c0-2.112,0.048-4.212,0.144-6.301
			c0.12-0.887,0.54-1.355,1.26-1.403c0.6,0.024,0.984,0.288,1.152,0.792c1.152-0.6,2.76-1.212,4.824-1.836
			c0.648-0.192,1.271-0.36,1.872-0.504c-0.049-0.168-0.084-0.312-0.108-0.433c0-0.455,0.144-0.924,0.432-1.403
			c0.24-0.48,0.468-0.912,0.684-1.297c-2.832-0.071-5.976-0.155-9.432-0.252c-0.888-0.144-1.356-0.516-1.404-1.115
			C182.819,12.417,183.383,11.948,184.463,11.9z M187.019,37.496c2.448-0.096,5.135-0.18,8.064-0.252
			c3.6-0.096,7.428-0.155,11.484-0.18c0.023-0.24,0.072-0.54,0.144-0.9c0.576-2.327,1.008-4.415,1.296-6.264
			c0.24-2.04,0.36-3.853,0.36-5.437c0-1.871-0.516-3.168-1.548-3.888c-1.104-0.815-3.012-1.224-5.724-1.224
			c-2.232,0-4.488,0.276-6.768,0.828c-2.352,0.504-4.86,1.32-7.524,2.447c-0.096,0.049-0.18,0.085-0.252,0.108h0.036
			c0.84,0,3.036,0.072,6.588,0.216c4.176,0.192,6.576,0.313,7.2,0.36c0.792,0.265,1.211,0.684,1.26,1.26
			c-0.072,0.696-0.492,1.068-1.26,1.116c-1.776,0-6.468-0.192-14.076-0.576c-0.144-0.023-0.276-0.06-0.396-0.108
			c-0.024,0.864-0.036,1.836-0.036,2.916V28.1c0.216-0.072,0.456-0.132,0.72-0.181c2.448-0.383,6.48-0.611,12.096-0.684
			c1.319,0.024,2.016,0.396,2.088,1.116c-0.024,0.769-0.444,1.188-1.26,1.26c-4.128,0.072-7.248,0.216-9.36,0.432
			c-1.296,0.145-2.532,0.24-3.708,0.288c-0.192,0-0.373-0.023-0.54-0.071c0.048,0.936,0.096,1.752,0.144,2.447h0.108
			c4.56-0.119,8.604-0.359,12.132-0.72c0.576-0.072,1.08-0.108,1.512-0.108c0.936,0.024,1.404,0.396,1.404,1.116
			c-0.024,0.601-0.349,0.973-0.972,1.116c-0.984,0.168-3.024,0.384-6.12,0.648c-2.256,0.216-4.668,0.336-7.236,0.359
			c-0.192,0-0.373-0.012-0.54-0.036c0.096,0.433,0.192,0.78,0.288,1.044C186.862,36.704,186.995,37.16,187.019,37.496z"/>
		<path fill="#1F2020" d="M220.319,17.66c1.128,0,2.316,0.385,3.564,1.152c1.296,0.816,1.944,1.608,1.944,2.376
			c-0.096,0.84-0.516,1.309-1.26,1.404c-0.552,0-0.984-0.145-1.296-0.433c-0.96-1.031-2.124-1.68-3.492-1.943
			c-0.528-0.24-0.816-0.672-0.864-1.297C218.963,18.127,219.431,17.708,220.319,17.66z M221.867,25.255
			c0.792,0.024,1.212,0.445,1.26,1.261c0,0.288-0.156,0.96-0.468,2.016c-0.24,1.177-0.36,2.101-0.36,2.772
			c0,2.231,0.648,3.864,1.944,4.896c1.224,1.057,3.252,1.584,6.084,1.584c2.088,0,4.008-0.264,5.76-0.792
			c0.6-0.216,1.067-0.324,1.404-0.324c0.888,0.024,1.356,0.396,1.404,1.116c0,0.768-0.373,1.236-1.116,1.404
			c-2.376,0.743-4.632,1.116-6.768,1.116h-1.404c-2.641,0-4.896-0.637-6.768-1.908c-2.04-1.584-3.06-3.853-3.06-6.804v-0.505
			c0-1.175,0.276-2.747,0.828-4.716C220.774,25.676,221.195,25.304,221.867,25.255z M228.491,13.592c0.84,0,2.568,0.12,5.184,0.359
			c0.792-1.151,1.692-2.352,2.7-3.6c0.288-0.433,0.66-0.66,1.116-0.685c0.672,0.024,1.044,0.349,1.116,0.973
			c0,0.504-0.288,1.176-0.864,2.016c-0.384,0.553-0.744,1.068-1.08,1.548c0.36,0.049,0.72,0.085,1.08,0.108
			c5.808,0.528,9.144,0.852,10.008,0.972c0.72,0.24,1.092,0.612,1.116,1.116c-0.072,0.72-0.492,1.093-1.26,1.116
			c-1.824,0-5.988-0.324-12.492-0.973c-1.992,3.072-2.988,5.04-2.988,5.904c0,0.648,0.384,0.972,1.152,0.972
			c0.888,0,2.268-0.191,4.14-0.575c-0.265-1.464-0.432-2.484-0.504-3.061c0.048-0.815,0.432-1.235,1.152-1.26
			c0.815,0,1.284,0.468,1.404,1.404c0.12,0.792,0.252,1.584,0.396,2.376c0.624-0.168,1.272-0.336,1.944-0.504
			c1.248-0.313,2.147-0.469,2.7-0.469c0.624,0.024,0.96,0.396,1.008,1.116c-0.024,0.36-0.168,0.684-0.432,0.972
			c-1.752,0.553-3.36,0.996-4.824,1.332c0.216,1.201,0.42,2.376,0.612,3.528c1.344-0.216,2.604-0.456,3.78-0.72
			c0.696-0.216,1.308-0.324,1.836-0.324c0.936,0.024,1.404,0.396,1.404,1.116c-0.048,0.6-0.373,0.972-0.972,1.116
			c-1.008,0.336-2.88,0.756-5.616,1.26c0.167,0.864,0.324,1.691,0.468,2.483c0.096,0.528,0.167,0.925,0.216,1.188
			c-0.048,0.792-0.372,1.212-0.972,1.26c-0.84-0.023-1.356-0.396-1.548-1.116c-0.24-1.247-0.444-2.388-0.612-3.42
			c-2.664,0.456-5.46,0.708-8.388,0.756c-0.648,0-1.14-0.095-1.476-0.287c-0.336-0.192-0.504-0.564-0.504-1.116
			c0.024-0.6,0.444-0.937,1.26-1.008c3.096-0.168,5.988-0.433,8.676-0.792c-0.24-1.272-0.444-2.412-0.612-3.421
			c-1.392,0.24-2.616,0.36-3.672,0.36l-1.008,0.072c-2.256,0-3.384-0.984-3.384-2.952V21.98c0.12-1.464,0.912-3.372,2.376-5.725
			c-1.224-0.119-2.484-0.252-3.78-0.396c-0.816-0.168-1.236-0.552-1.26-1.152C227.11,13.988,227.579,13.616,228.491,13.592z"/>
	</g>
</g>
</svg>
